<svg width="212" height="212" viewBox="0 0 212 212" fill="none" xmlns="http://www.w3.org/2000/svg">
<circle cx="106" cy="106" r="106" fill="#192038"/>
<circle cx="106" cy="106" r="92" fill="#C72A00"/>
<path d="M64.2897 74L58.3327 62.109V74H55.6417V57.9H58.9537L64.9107 69.791V57.9H67.6017V74H64.2897ZM81.1532 70.55C80.9845 71.7153 80.4632 72.62 79.5892 73.264C78.7305 73.908 77.6112 74.23 76.2312 74.23C74.6979 74.23 73.4559 73.793 72.5052 72.919C71.5699 72.045 71.1022 70.7647 71.1022 69.078V67.468C71.1022 65.7967 71.5699 64.524 72.5052 63.65C73.4405 62.7607 74.6979 62.316 76.2772 62.316C77.7952 62.316 78.9989 62.7683 79.8882 63.673C80.7775 64.5777 81.2222 65.8887 81.2222 67.606V68.917H73.9542C73.9695 69.0703 73.9849 69.2237 74.0002 69.377C74.0155 69.515 74.0309 69.6607 74.0462 69.814C74.1382 70.4733 74.3759 70.987 74.7592 71.355C75.1425 71.723 75.6869 71.907 76.3922 71.907C76.4382 71.907 76.4765 71.907 76.5072 71.907C76.5532 71.8917 76.5915 71.884 76.6222 71.884C77.1589 71.8533 77.5729 71.7153 77.8642 71.47C78.1555 71.2093 78.3472 70.9027 78.4392 70.55H81.1532ZM73.9542 67.146L74.2302 67.215H78.5542C78.5082 66.3257 78.3089 65.674 77.9562 65.26C77.6035 64.8307 77.0439 64.616 76.2772 64.616C75.5259 64.616 74.9585 64.846 74.5752 65.306C74.2072 65.7507 74.0002 66.364 73.9542 67.146ZM94.3326 74L91.8486 65.996L89.2726 74H86.2136L83.1086 62.546H86.1676L88.0076 70.918L90.6526 62.546H93.2056L95.7816 70.941L97.7366 62.546H100.658L97.5296 74H94.3326ZM109.839 74V57.9H112.622V71.585H119.729V74H109.839ZM126.657 74.23C125.077 74.23 123.812 73.793 122.862 72.919C121.911 72.045 121.436 70.7647 121.436 69.078V67.468C121.436 65.7967 121.911 64.524 122.862 63.65C123.812 62.7607 125.077 62.316 126.657 62.316C128.251 62.316 129.524 62.7607 130.475 63.65C131.425 64.524 131.901 65.7967 131.901 67.468V69.078C131.901 70.7647 131.425 72.045 130.475 72.919C129.524 73.793 128.251 74.23 126.657 74.23ZM126.657 64.731C125.844 64.731 125.246 64.9917 124.863 65.513C124.479 66.019 124.288 66.7013 124.288 67.56V68.986C124.288 69.8447 124.479 70.5347 124.863 71.056C125.246 71.562 125.844 71.815 126.657 71.815C127.485 71.815 128.09 71.562 128.474 71.056C128.872 70.5347 129.072 69.8447 129.072 68.986V67.56C129.072 66.7013 128.872 66.019 128.474 65.513C128.09 64.9917 127.485 64.731 126.657 64.731ZM139.689 74.23C138.11 74.23 136.845 73.793 135.894 72.919C134.944 72.045 134.468 70.7647 134.468 69.078V67.468C134.468 65.7967 134.944 64.524 135.894 63.65C136.845 62.7607 138.11 62.316 139.689 62.316C141.284 62.316 142.557 62.7607 143.507 63.65C144.458 64.524 144.933 65.7967 144.933 67.468V69.078C144.933 70.7647 144.458 72.045 143.507 72.919C142.557 73.793 141.284 74.23 139.689 74.23ZM139.689 64.731C138.877 64.731 138.279 64.9917 137.895 65.513C137.512 66.019 137.32 66.7013 137.32 67.56V68.986C137.32 69.8447 137.512 70.5347 137.895 71.056C138.279 71.562 138.877 71.815 139.689 71.815C140.517 71.815 141.123 71.562 141.506 71.056C141.905 70.5347 142.104 69.8447 142.104 68.986V67.56C142.104 66.7013 141.905 66.019 141.506 65.513C141.123 64.9917 140.517 64.731 139.689 64.731ZM155.413 74L152.285 69.308L150.836 70.941V74H148.076V57.21H150.836V67.376L155.022 62.546H158.219L154.148 67.192L158.909 74H155.413ZM69.7324 96.637C69.2111 96.637 68.7894 96.4913 68.4674 96.2C68.1454 95.9087 67.9844 95.533 67.9844 95.073C67.9844 94.5977 68.1454 94.2143 68.4674 93.923C68.7894 93.6317 69.2111 93.486 69.7324 93.486C70.2538 93.486 70.6754 93.6317 70.9974 93.923C71.3194 94.2143 71.4804 94.5977 71.4804 95.073C71.4804 95.533 71.3194 95.9087 70.9974 96.2C70.6754 96.4913 70.2538 96.637 69.7324 96.637ZM68.3524 110V98.546H71.1124V110H68.3524ZM77.609 103.721V110H74.849V98.546H77.609V100.547C77.9924 99.7803 78.483 99.2207 79.081 98.868C79.679 98.5 80.3537 98.316 81.105 98.316C82.2857 98.316 83.2057 98.661 83.865 99.351C84.5397 100.041 84.877 101.061 84.877 102.41V110H82.094V103.169C82.094 102.341 81.933 101.728 81.611 101.329C81.3044 100.93 80.783 100.731 80.047 100.731C79.6024 100.731 79.196 100.846 78.828 101.076C78.46 101.291 78.161 101.62 77.931 102.065C77.7164 102.494 77.609 103.046 77.609 103.721ZM94.0001 110V107.769L99.3821 102.134C99.9955 101.49 100.455 100.961 100.762 100.547C101.069 100.118 101.268 99.7343 101.36 99.397C101.467 99.0443 101.521 98.661 101.521 98.247C101.521 97.511 101.345 96.9667 100.992 96.614C100.639 96.2613 100.087 96.085 99.3361 96.085C98.5388 96.085 97.9485 96.3073 97.5651 96.752C97.1971 97.1813 96.9595 97.8483 96.8521 98.753H94.1381C94.1995 97.1737 94.6825 95.9317 95.5871 95.027C96.5071 94.1223 97.7721 93.67 99.3821 93.67C101.084 93.67 102.341 94.0917 103.154 94.935C103.967 95.763 104.373 96.867 104.373 98.247C104.373 99.029 104.258 99.719 104.028 100.317C103.798 100.915 103.445 101.505 102.97 102.088C102.51 102.655 101.912 103.315 101.176 104.066L97.9331 107.585H104.534V110H94.0001ZM113.245 110.23C111.528 110.23 110.171 109.77 109.174 108.85C108.177 107.93 107.679 106.627 107.679 104.94V98.983C107.679 97.281 108.177 95.97 109.174 95.05C110.171 94.13 111.528 93.67 113.245 93.67C114.978 93.67 116.342 94.13 117.339 95.05C118.336 95.97 118.834 97.281 118.834 98.983V104.917C118.834 106.619 118.336 107.93 117.339 108.85C116.342 109.77 114.978 110.23 113.245 110.23ZM113.245 96.085C112.325 96.085 111.643 96.361 111.198 96.913C110.753 97.4497 110.531 98.1703 110.531 99.075V104.848C110.531 105.737 110.753 106.458 111.198 107.01C111.643 107.547 112.325 107.815 113.245 107.815C114.196 107.815 114.893 107.547 115.338 107.01C115.783 106.458 116.005 105.737 116.005 104.848V99.075C116.005 98.1703 115.783 97.4497 115.338 96.913C114.893 96.361 114.196 96.085 113.245 96.085ZM121.683 110V107.769L127.065 102.134C127.678 101.49 128.138 100.961 128.445 100.547C128.751 100.118 128.951 99.7343 129.043 99.397C129.15 99.0443 129.204 98.661 129.204 98.247C129.204 97.511 129.027 96.9667 128.675 96.614C128.322 96.2613 127.77 96.085 127.019 96.085C126.221 96.085 125.631 96.3073 125.248 96.752C124.88 97.1813 124.642 97.8483 124.535 98.753H121.821C121.882 97.1737 122.365 95.9317 123.27 95.027C124.19 94.1223 125.455 93.67 127.065 93.67C128.767 93.67 130.024 94.0917 130.837 94.935C131.649 95.763 132.056 96.867 132.056 98.247C132.056 99.029 131.941 99.719 131.711 100.317C131.481 100.915 131.128 101.505 130.653 102.088C130.193 102.655 129.595 103.315 128.859 104.066L125.616 107.585H132.217V110H121.683ZM134.626 110V107.769L140.008 102.134C140.621 101.49 141.081 100.961 141.388 100.547C141.694 100.118 141.894 99.7343 141.986 99.397C142.093 99.0443 142.147 98.661 142.147 98.247C142.147 97.511 141.97 96.9667 141.618 96.614C141.265 96.2613 140.713 96.085 139.962 96.085C139.164 96.085 138.574 96.3073 138.191 96.752C137.823 97.1813 137.585 97.8483 137.478 98.753H134.764C134.825 97.1737 135.308 95.9317 136.213 95.027C137.133 94.1223 138.398 93.67 140.008 93.67C141.71 93.67 142.967 94.0917 143.78 94.935C144.592 95.763 144.999 96.867 144.999 98.247C144.999 99.029 144.884 99.719 144.654 100.317C144.424 100.915 144.071 101.505 143.596 102.088C143.136 102.655 142.538 103.315 141.802 104.066L138.559 107.585H145.16V110H134.626Z" fill="white"/>
<path d="M96 148H118" stroke="white" stroke-width="2" stroke-linecap="round" stroke-linejoin="round"/>
<path d="M109 139L118 148L109 157" stroke="white" stroke-width="2" stroke-linecap="round" stroke-linejoin="round"/>
</svg>
