<svg width="115" height="54" viewBox="0 0 115 54" fill="none" xmlns="http://www.w3.org/2000/svg">
<g clip-path="url(#clip0_1_34)">
<path d="M24.165 10.05H3.285C1.89 10.05 1.395 10.545 1.395 11.94V15.99C1.395 17.43 1.89 17.925 3.285 17.925H14.265L1.8 35.475C1.395 36.015 1.17 36.6 1.17 37.365V40.11C1.17 41.505 1.665 42 3.06 42H24.39C25.83 42 26.28 41.505 26.28 40.11V36.015C26.28 34.575 25.83 34.125 24.39 34.125H13.005L25.47 16.62C25.875 16.035 26.055 15.495 26.055 14.64V11.94C26.055 10.545 25.605 10.05 24.165 10.05ZM58.2898 40.155L47.8948 11.535C47.4448 10.365 46.8598 10.05 45.5548 10.05H40.4248C39.1198 10.05 38.5348 10.32 38.0848 11.625L27.7348 40.155C27.2848 41.37 27.5548 42 28.9498 42H33.6748C35.9248 42 36.5098 41.505 36.9598 40.11L37.9948 36.87H47.7148L48.7498 40.11C49.1098 41.505 49.7848 42 52.1248 42H56.9848C58.3348 42 58.7398 41.37 58.2898 40.155ZM44.0248 24.54L45.6898 29.805H40.0648L41.7298 24.495C42.6298 21.48 42.5848 18.24 42.5848 18.24H43.0348C43.0348 18.24 43.1248 21.48 44.0248 24.54ZM75.5012 10.05H62.6762C61.2362 10.05 60.7412 10.545 60.7412 11.94V40.11C60.7412 41.505 61.2362 42 62.6762 42H67.7612C69.2012 42 69.6512 41.505 69.6512 40.11V31.38H70.6862C72.5312 31.38 73.2962 32.145 74.0612 33.675L76.9412 39.84C77.6612 41.415 78.6962 42 81.0812 42H85.9412C87.4262 42 87.7412 41.01 87.1112 39.795L83.0612 32.1C82.7012 31.38 82.2962 30.75 81.8462 30.165C84.9062 28.455 86.7062 25.305 86.7062 20.895C86.7062 13.92 82.2962 10.05 75.5012 10.05ZM77.4812 20.85C77.4812 22.695 76.4012 23.865 74.5112 23.865H69.6512V17.925H74.5112C76.4462 17.925 77.4812 19.05 77.4812 20.85ZM111.282 10.05H92.4272C90.9872 10.05 90.4922 10.545 90.4922 11.94V40.11C90.4922 41.505 90.9872 42 92.4272 42H97.5122C98.9522 42 99.4022 41.505 99.4022 40.11V31.02H108.897C110.337 31.02 110.832 30.525 110.832 29.085V25.035C110.832 23.64 110.337 23.145 108.897 23.145H99.4022V17.925H111.282C112.722 17.925 113.217 17.43 113.217 15.99V11.94C113.217 10.545 112.722 10.05 111.282 10.05Z" fill="#C72A00"/>
</g>
<defs>
<clipPath id="clip0_1_34">
<rect width="115" height="54" fill="white"/>
</clipPath>
</defs>
</svg>
